Coordinates
version=1
nRows=9
nColumns=24
inDegrees=yes

Units are S.I. units (second, meters, Newtons, ...)
Angles are in degrees.

endheader
time	pelvis_tilt	pelvis_list	pelvis_rotation	pelvis_tx	pelvis_ty	pelvis_tz	hip_flexion_r	hip_adduction_r	hip_rotation_r	knee_angle_r	ankle_angle_r	subtalar_angle_r	mtp_angle_r	hip_flexion_l	hip_adduction_l	hip_rotation_l	knee_angle_l	ankle_angle_l	subtalar_angle_l	mtp_angle_l	lumbar_extension	lumbar_bending	lumbar_rotation
      1.13383333	     -2.23649789	      4.23052750	     -1.69886686	      0.13155303	      0.90432106	      0.33150498	     21.23117024	     -7.33418567	     -6.82321857	    -76.21358675	     -0.60160729	      5.97215193	      7.12043293	     13.10062162	      8.02180582	     -4.11183938	    -20.94348334	     12.00441841	     -6.03402330	      3.26985207	     -5.44888172	     -6.52685619	      1.24027304
      1.13800000	     -2.30768388	      4.07640430	     -1.60587184	      0.13691029	      0.90529403	      0.33130724	     21.96275420	     -7.10143983	     -6.86349594	    -75.95547054	     -0.19363733	      5.74663262	      7.07470861	     12.50682123	      7.90086728	     -3.98877886	    -20.37523437	     12.04602215	     -5.89164637	      3.26970325	     -5.37037169	     -6.34350800	      1.18526666
      1.14216667	     -2.35438418	      3.90320596	     -1.49160883	      0.14223071	      0.90631006	      0.33108366	     22.64036748	     -6.84210931	     -6.91963399	    -75.61175813	      0.22191203	      5.45178582	      4.59498502	     11.87341742	      7.77762501	     -3.75309775	    -19.77134775	     12.01393589	     -5.92285197	      3.15902576	     -5.37214550	     -6.12546673	      1.00205179
      1.14633333	     -2.41597460	      3.70850344	     -1.37883196	      0.14756093	      0.90727884	      0.33089759	     23.30687942	     -6.54945373	     -6.97214719	    -75.17497204	      0.59026404	      5.20521900	      4.59550129	     11.27635484	      7.60803710	     -3.60861729	    -19.21195503	     12.03175838	     -5.77992977	      3.15963156	     -5.33261614	     -5.88781815	      0.89165921
      1.15050000	     -2.46057482	      3.50672222	     -1.26066879	      0.15289583	      0.90825586	      0.33070245	     23.92763157	     -6.25014548	     -7.03016926	    -74.65378709	      0.92861901	      4.97481642	      4.59126375	     10.65271198	      7.43289231	     -3.44452641	    -18.63202560	     12.03937669	     -5.67164457	      3.15969557	     -5.31499598	     -5.64157274	      0.75008277
      1.15466667	     -2.47912115	      3.30587756	     -1.14114439	      0.15824295	      0.90925327	      0.33050026	     24.49442508	     -5.95481282	     -7.08976448	    -74.05257397	      1.22255333	      4.77040136	      4.57330403	      9.98615818	      7.26248897	     -3.25313803	    -18.01852359	     12.05169309	     -5.61346137	      3.15869160	     -5.32038448	     -5.39582127	      0.54069774
      1.15883333	     -2.51812951	      3.09999014	     -1.01684876	      0.16355673	      0.91017502	      0.33031213	     25.06498416	     -5.64685637	     -7.14051060	    -73.38742663	      1.57894532	      4.61752073	      4.56321468	      9.36082441	      7.07671707	     -3.09050569	    -17.43399043	     12.01859111	     -5.51845172	      3.15790628	     -5.31147333	     -5.14700055	      0.41515171
      1.16300000	     -2.51554193	      2.89703760	     -0.89078088	      0.16889194	      0.91113360	      0.33010470	     25.56265174	     -5.35243136	     -7.20052143	    -72.64487771	      1.86840284	      4.47499906	      4.53768863	      8.67066572	      6.89937169	     -2.89518204	    -16.80722635	     12.01565503	     -5.47434746	      3.15715277	     -5.34264498	     -4.89544239	      0.21936970
      1.16716667	     -2.52015049	      2.68893083	     -0.75985834	      0.17419842	      0.91203710	      0.32990607	     26.04757499	     -5.04893302	     -7.25700489	    -71.83684987	      2.17595453	      4.35869884	      4.51256864	      8.00153576	      6.70982238	     -2.71254042	    -16.19865030	     11.98653264	     -5.41968471	      3.15618723	     -5.37214678	     -4.63800157	      0.05360067
